<mxfile host="app.diagrams.net" agent="Mozilla/5.0 (Windows NT 10.0; Win64; x64) AppleWebKit/537.36 (KHTML, like Gecko) Chrome/137.0.0.0 Safari/537.36 Edg/137.0.0.0" version="27.1.6">
  <diagram name="Page-1" id="SFsGQ5_7wxpvsq0oeR57">
    <mxGraphModel dx="1627" dy="1399" grid="1" gridSize="10" guides="1" tooltips="1" connect="1" arrows="1" fold="1" page="1" pageScale="1" pageWidth="827" pageHeight="1169" math="0" shadow="0">
      <root>
        <mxCell id="0" />
        <mxCell id="1" parent="0" />
        <mxCell id="sRX-MnRd9AaDwBahQj7O-4" value="&lt;h2&gt;&amp;nbsp; Bazel&lt;/h2&gt;&lt;div&gt;&lt;br&gt;&lt;/div&gt;&lt;div&gt;&lt;br&gt;&lt;/div&gt;&lt;div&gt;&lt;br&gt;&lt;/div&gt;&lt;div&gt;&lt;br&gt;&lt;/div&gt;&lt;div&gt;&lt;br&gt;&lt;/div&gt;&lt;div&gt;&lt;br&gt;&lt;/div&gt;&lt;div&gt;&lt;br&gt;&lt;/div&gt;&lt;div&gt;&lt;br&gt;&lt;/div&gt;&lt;div&gt;&lt;br&gt;&lt;/div&gt;&lt;div&gt;&lt;br&gt;&lt;/div&gt;&lt;div&gt;&lt;br&gt;&lt;/div&gt;&lt;div&gt;&lt;br&gt;&lt;/div&gt;&lt;div&gt;&lt;br&gt;&lt;/div&gt;&lt;div&gt;&lt;br&gt;&lt;/div&gt;&lt;div&gt;&lt;br&gt;&lt;/div&gt;&lt;div&gt;&lt;br&gt;&lt;/div&gt;&lt;div&gt;&lt;br&gt;&lt;/div&gt;&lt;div&gt;&lt;br&gt;&lt;/div&gt;&lt;div&gt;&lt;br&gt;&lt;/div&gt;&lt;div&gt;&lt;br&gt;&lt;/div&gt;&lt;div&gt;&lt;br&gt;&lt;/div&gt;&lt;div&gt;&lt;br&gt;&lt;/div&gt;&lt;div&gt;&lt;br&gt;&lt;/div&gt;&lt;div&gt;&lt;br&gt;&lt;/div&gt;&lt;div&gt;&lt;br&gt;&lt;/div&gt;&lt;div&gt;&lt;br&gt;&lt;/div&gt;&lt;div&gt;&lt;br&gt;&lt;/div&gt;&lt;div&gt;&lt;br&gt;&lt;/div&gt;&lt;div&gt;&lt;br&gt;&lt;/div&gt;&lt;div&gt;&lt;br&gt;&lt;/div&gt;" style="rounded=0;whiteSpace=wrap;html=1;strokeColor=none;fillColor=light-dark(#ecf2fa, #ededed);shadow=1;align=left;movable=1;resizable=1;rotatable=1;deletable=1;editable=1;locked=0;connectable=1;" parent="1" vertex="1">
          <mxGeometry x="40" y="220" width="740" height="480" as="geometry" />
        </mxCell>
        <mxCell id="sRX-MnRd9AaDwBahQj7O-5" value="" style="endArrow=none;dashed=1;html=1;strokeWidth=7;rounded=0;strokeColor=light-dark(#75a2b0, #ededed);fillColor=light-dark(#75a2b0, #ededed);" parent="1" edge="1">
          <mxGeometry width="50" height="50" relative="1" as="geometry">
            <mxPoint x="810" y="40" as="sourcePoint" />
            <mxPoint x="810" y="960" as="targetPoint" />
          </mxGeometry>
        </mxCell>
        <mxCell id="sRX-MnRd9AaDwBahQj7O-10" value="&amp;nbsp; &amp;nbsp; Message Broker&lt;blockquote style=&quot;margin: 0 0 0 40px; border: none; padding: 0px;&quot;&gt;&lt;br&gt;&lt;/blockquote&gt;&lt;blockquote style=&quot;margin: 0 0 0 40px; border: none; padding: 0px;&quot;&gt;&lt;br&gt;&lt;/blockquote&gt;&lt;blockquote style=&quot;margin: 0 0 0 40px; border: none; padding: 0px;&quot;&gt;&lt;br&gt;&lt;/blockquote&gt;" style="rounded=0;whiteSpace=wrap;html=1;strokeColor=light-dark(#ecf2fa, #ededed);fillColor=light-dark(#ecf2fa, #ededed);shadow=1;fontStyle=1;align=left;fontSize=16;textShadow=1;" parent="1" vertex="1">
          <mxGeometry x="860" y="370" width="580" height="80" as="geometry" />
        </mxCell>
        <mxCell id="sRX-MnRd9AaDwBahQj7O-59" value="" style="group" parent="1" vertex="1" connectable="0">
          <mxGeometry x="230" y="770" width="220" height="110" as="geometry" />
        </mxCell>
        <mxCell id="sRX-MnRd9AaDwBahQj7O-60" value="Unit Tests" style="rounded=0;whiteSpace=wrap;html=1;fillColor=light-dark(#e4fad2, #281d00);strokeColor=none;fontStyle=1;shadow=1;fontSize=17;textShadow=1;" parent="sRX-MnRd9AaDwBahQj7O-59" vertex="1">
          <mxGeometry x="-70" y="-10" width="290" height="80" as="geometry" />
        </mxCell>
        <mxCell id="sRX-MnRd9AaDwBahQj7O-61" value="" style="group" parent="sRX-MnRd9AaDwBahQj7O-59" connectable="0" vertex="1">
          <mxGeometry x="50" y="50" width="51.43" height="60" as="geometry" />
        </mxCell>
        <mxCell id="sRX-MnRd9AaDwBahQj7O-62" value="" style="whiteSpace=wrap;html=1;shape=mxgraph.basic.document" parent="sRX-MnRd9AaDwBahQj7O-61" vertex="1">
          <mxGeometry x="12.143194444444445" width="34.28666666666666" height="48" as="geometry" />
        </mxCell>
        <mxCell id="sRX-MnRd9AaDwBahQj7O-63" value="" style="whiteSpace=wrap;html=1;shape=mxgraph.basic.document" parent="sRX-MnRd9AaDwBahQj7O-61" vertex="1">
          <mxGeometry x="5.714444444444444" y="6" width="34.28666666666666" height="48" as="geometry" />
        </mxCell>
        <mxCell id="sRX-MnRd9AaDwBahQj7O-64" value="" style="whiteSpace=wrap;html=1;shape=mxgraph.basic.document" parent="sRX-MnRd9AaDwBahQj7O-61" vertex="1">
          <mxGeometry y="12" width="34.28666666666666" height="48" as="geometry" />
        </mxCell>
        <mxCell id="sRX-MnRd9AaDwBahQj7O-84" value="Target Compilation" style="rounded=0;whiteSpace=wrap;html=1;fillColor=light-dark(#51ccb4, #ededed);fontColor=light-dark(#ffffff, #ededed);fontStyle=1;fontSize=18;shadow=1;strokeColor=none;" parent="1" vertex="1">
          <mxGeometry x="210" y="425" width="400" height="60" as="geometry" />
        </mxCell>
        <mxCell id="sRX-MnRd9AaDwBahQj7O-85" value="Transmission" style="rounded=0;whiteSpace=wrap;html=1;fillColor=light-dark(#47b0b4, #ededed);fontColor=light-dark(#ffffff, #ededed);fontStyle=1;fontSize=18;shadow=1;strokeColor=none;" parent="1" vertex="1">
          <mxGeometry x="210" y="270" width="400" height="60" as="geometry" />
        </mxCell>
        <mxCell id="sRX-MnRd9AaDwBahQj7O-87" value="" style="endArrow=classic;html=1;rounded=0;exitX=0.551;exitY=-0.015;exitDx=0;exitDy=0;entryX=0.276;entryY=0.973;entryDx=0;entryDy=0;strokeWidth=7;strokeColor=light-dark(#75a2b0, #ededed);exitPerimeter=0;entryPerimeter=0;flowAnimation=1;dashed=1;dashPattern=1 1;shadow=1;" parent="1" edge="1">
          <mxGeometry width="50" height="50" relative="1" as="geometry">
            <mxPoint x="299.99999999999994" y="759.8" as="sourcePoint" />
            <mxPoint x="300.60999999999984" y="639.38" as="targetPoint" />
            <Array as="points" />
          </mxGeometry>
        </mxCell>
        <mxCell id="sRX-MnRd9AaDwBahQj7O-90" value="" style="endArrow=classic;html=1;rounded=0;exitX=0.25;exitY=0;exitDx=0;exitDy=0;strokeWidth=7;strokeColor=light-dark(#7fe4a4, #ededed);entryX=0.4;entryY=0.994;entryDx=0;entryDy=0;entryPerimeter=0;flowAnimation=1;dashed=1;dashPattern=1 1;shadow=1;" parent="1" edge="1">
          <mxGeometry width="50" height="50" relative="1" as="geometry">
            <mxPoint x="309.9999999999999" y="581" as="sourcePoint" />
            <mxPoint x="370.0000000000001" y="485.64" as="targetPoint" />
            <Array as="points">
              <mxPoint x="310" y="540" />
              <mxPoint x="370" y="540" />
            </Array>
          </mxGeometry>
        </mxCell>
        <mxCell id="sRX-MnRd9AaDwBahQj7O-91" value="" style="endArrow=classic;html=1;rounded=0;entryX=0.599;entryY=1.002;entryDx=0;entryDy=0;strokeWidth=7;strokeColor=light-dark(#75a2b0, #ededed);entryPerimeter=0;flowAnimation=1;dashed=1;dashPattern=1 1;shadow=1;" parent="1" target="sRX-MnRd9AaDwBahQj7O-84" edge="1">
          <mxGeometry width="50" height="50" relative="1" as="geometry">
            <mxPoint x="555" y="760" as="sourcePoint" />
            <mxPoint x="450" y="485" as="targetPoint" />
            <Array as="points">
              <mxPoint x="555" y="540" />
              <mxPoint x="450" y="540" />
            </Array>
          </mxGeometry>
        </mxCell>
        <mxCell id="sRX-MnRd9AaDwBahQj7O-83" value="Test Registration" style="rounded=0;whiteSpace=wrap;html=1;fillColor=light-dark(#7fe4a4, #ededed);fontColor=light-dark(#ffffff, #ededed);fontStyle=1;fontSize=18;shadow=1;strokeColor=none;" parent="1" vertex="1">
          <mxGeometry x="210" y="580" width="400" height="60" as="geometry" />
        </mxCell>
        <mxCell id="sRX-MnRd9AaDwBahQj7O-92" value="" style="endArrow=classic;html=1;rounded=0;exitX=0.5;exitY=0;exitDx=0;exitDy=0;entryX=0.5;entryY=1;entryDx=0;entryDy=0;strokeWidth=7;flowAnimation=1;strokeColor=light-dark(#51ccb4, #ededed);shadow=1;" parent="1" source="sRX-MnRd9AaDwBahQj7O-84" target="sRX-MnRd9AaDwBahQj7O-85" edge="1">
          <mxGeometry width="50" height="50" relative="1" as="geometry">
            <mxPoint x="420" y="490" as="sourcePoint" />
            <mxPoint x="470" y="440" as="targetPoint" />
          </mxGeometry>
        </mxCell>
        <mxCell id="sRX-MnRd9AaDwBahQj7O-93" value="" style="endArrow=classic;html=1;rounded=0;exitX=1;exitY=0.5;exitDx=0;exitDy=0;entryX=0;entryY=0.5;entryDx=0;entryDy=0;strokeWidth=7;strokeColor=light-dark(#18c9f9, #ededed);flowAnimation=1;shadow=1;" parent="1" source="sRX-MnRd9AaDwBahQj7O-85" target="sRX-MnRd9AaDwBahQj7O-10" edge="1">
          <mxGeometry width="50" height="50" relative="1" as="geometry">
            <mxPoint x="850" y="500" as="sourcePoint" />
            <mxPoint x="900" y="450" as="targetPoint" />
            <Array as="points">
              <mxPoint x="710" y="300" />
              <mxPoint x="710" y="410" />
            </Array>
          </mxGeometry>
        </mxCell>
        <mxCell id="sRX-MnRd9AaDwBahQj7O-94" value="Results&lt;div&gt;Processor&lt;/div&gt;" style="rounded=0;whiteSpace=wrap;html=1;fillColor=light-dark(#5794a6, #ededed);strokeColor=none;shadow=1;fontSize=15;fontStyle=1;textShadow=1;fontColor=light-dark(#ffffff, #ededed);" parent="1" vertex="1">
          <mxGeometry x="1350" y="240" width="170" height="100" as="geometry" />
        </mxCell>
        <mxCell id="sRX-MnRd9AaDwBahQj7O-95" value="&lt;blockquote style=&quot;margin: 0 0 0 40px; border: none; padding: 0px;&quot;&gt;Consumer&lt;/blockquote&gt;" style="rounded=0;whiteSpace=wrap;html=1;fillColor=light-dark(#beeeee, #ededed);strokeColor=none;shadow=1;align=left;fontSize=15;fontStyle=1;textShadow=1;" parent="1" vertex="1">
          <mxGeometry x="855" y="670" width="190" height="100" as="geometry" />
        </mxCell>
        <mxCell id="sRX-MnRd9AaDwBahQj7O-162" value="TC399" style="outlineConnect=0;dashed=0;verticalLabelPosition=bottom;verticalAlign=top;align=center;html=1;shape=mxgraph.aws3.queue;fillColor=#19647E;gradientColor=none;fontStyle=1;shadow=1;fontColor=#FFFFFF;" parent="1" vertex="1">
          <mxGeometry x="910" y="528" width="80" height="40" as="geometry" />
        </mxCell>
        <mxCell id="sRX-MnRd9AaDwBahQj7O-163" value="TC389" style="outlineConnect=0;dashed=0;verticalLabelPosition=bottom;verticalAlign=top;align=center;html=1;shape=mxgraph.aws3.queue;fillColor=#19647E;gradientColor=none;fontStyle=1;shadow=1;fontColor=#FFFFFF;" parent="1" vertex="1">
          <mxGeometry x="1120" y="528" width="80" height="40" as="geometry" />
        </mxCell>
        <mxCell id="sRX-MnRd9AaDwBahQj7O-164" value="TC4D9" style="outlineConnect=0;dashed=0;verticalLabelPosition=bottom;verticalAlign=top;align=center;html=1;shape=mxgraph.aws3.queue;fillColor=#19647E;gradientColor=none;fontStyle=1;shadow=1;fontColor=#FFFFFF;" parent="1" vertex="1">
          <mxGeometry x="1335" y="528" width="80" height="40" as="geometry" />
        </mxCell>
        <mxCell id="sRX-MnRd9AaDwBahQj7O-165" value="Results" style="outlineConnect=0;dashed=0;verticalLabelPosition=bottom;verticalAlign=top;align=center;html=1;shape=mxgraph.aws3.queue;fillColor=#3399FF;gradientColor=none;fontStyle=1;shadow=1;fontColor=#FFFFFF;" parent="1" vertex="1">
          <mxGeometry x="1530" y="406" width="80" height="40" as="geometry" />
        </mxCell>
        <mxCell id="sRX-MnRd9AaDwBahQj7O-166" value="" style="outlineConnect=0;dashed=0;verticalLabelPosition=bottom;verticalAlign=top;align=center;html=1;shape=mxgraph.aws3.hardware_board;fillColor=light-dark(#000000, #6eafc5);gradientColor=none;shadow=1;fillStyle=auto;" parent="1" vertex="1">
          <mxGeometry x="980" y="694.84" width="50" height="50.31" as="geometry" />
        </mxCell>
        <mxCell id="sRX-MnRd9AaDwBahQj7O-171" value="&lt;blockquote style=&quot;margin: 0 0 0 40px; border: none; padding: 0px;&quot;&gt;Consumer&lt;/blockquote&gt;" style="rounded=0;whiteSpace=wrap;html=1;fillColor=light-dark(#beeeee, #ededed);strokeColor=none;shadow=1;align=left;fontSize=15;fontStyle=1;textShadow=1;" parent="1" vertex="1">
          <mxGeometry x="1280" y="670" width="190" height="100" as="geometry" />
        </mxCell>
        <mxCell id="sRX-MnRd9AaDwBahQj7O-172" value="" style="outlineConnect=0;dashed=0;verticalLabelPosition=bottom;verticalAlign=top;align=center;html=1;shape=mxgraph.aws3.hardware_board;fillColor=light-dark(#000000, #6eafc5);gradientColor=none;shadow=1;fillStyle=auto;" parent="1" vertex="1">
          <mxGeometry x="1410" y="694.84" width="50" height="50.31" as="geometry" />
        </mxCell>
        <mxCell id="sRX-MnRd9AaDwBahQj7O-173" value="&lt;blockquote style=&quot;margin: 0 0 0 40px; border: none; padding: 0px;&quot;&gt;Consumer&lt;/blockquote&gt;" style="rounded=0;whiteSpace=wrap;html=1;fillColor=light-dark(#beeeee, #ededed);strokeColor=none;shadow=1;align=left;fontSize=15;fontStyle=1;textShadow=1;" parent="1" vertex="1">
          <mxGeometry x="1065" y="810" width="190" height="100" as="geometry" />
        </mxCell>
        <mxCell id="sRX-MnRd9AaDwBahQj7O-174" value="" style="outlineConnect=0;dashed=0;verticalLabelPosition=bottom;verticalAlign=top;align=center;html=1;shape=mxgraph.aws3.hardware_board;fillColor=light-dark(#000000, #6eafc5);gradientColor=none;shadow=1;fillStyle=auto;" parent="1" vertex="1">
          <mxGeometry x="1195" y="834.84" width="50" height="50.31" as="geometry" />
        </mxCell>
        <mxCell id="sRX-MnRd9AaDwBahQj7O-175" value="" style="endArrow=classic;html=1;rounded=0;exitX=0.5;exitY=1;exitDx=0;exitDy=0;entryX=0.5;entryY=0;entryDx=0;entryDy=0;strokeWidth=7;strokeColor=light-dark(#18c9f9, #ededed);entryPerimeter=0;flowAnimation=1;shadow=1;" parent="1" source="sRX-MnRd9AaDwBahQj7O-10" target="sRX-MnRd9AaDwBahQj7O-162" edge="1">
          <mxGeometry width="50" height="50" relative="1" as="geometry">
            <mxPoint x="1060" y="475" as="sourcePoint" />
            <mxPoint x="1310" y="585" as="targetPoint" />
            <Array as="points">
              <mxPoint x="1150" y="490" />
              <mxPoint x="950" y="490" />
            </Array>
          </mxGeometry>
        </mxCell>
        <mxCell id="sRX-MnRd9AaDwBahQj7O-176" value="" style="endArrow=classic;html=1;rounded=0;exitX=0.5;exitY=1;exitDx=0;exitDy=0;entryX=0.5;entryY=0;entryDx=0;entryDy=0;strokeWidth=7;strokeColor=light-dark(#18c9f9, #ededed);entryPerimeter=0;flowAnimation=1;shadow=1;" parent="1" source="sRX-MnRd9AaDwBahQj7O-10" target="sRX-MnRd9AaDwBahQj7O-164" edge="1">
          <mxGeometry width="50" height="50" relative="1" as="geometry">
            <mxPoint x="1290" y="510" as="sourcePoint" />
            <mxPoint x="1090" y="580" as="targetPoint" />
            <Array as="points">
              <mxPoint x="1150" y="490" />
              <mxPoint x="1375" y="490" />
            </Array>
          </mxGeometry>
        </mxCell>
        <mxCell id="sRX-MnRd9AaDwBahQj7O-177" value="" style="endArrow=classic;html=1;rounded=0;exitX=0.5;exitY=1;exitDx=0;exitDy=0;entryX=0.5;entryY=0;entryDx=0;entryDy=0;strokeWidth=7;strokeColor=light-dark(#18c9f9, #ededed);entryPerimeter=0;shadow=1;flowAnimation=1;" parent="1" source="sRX-MnRd9AaDwBahQj7O-10" target="sRX-MnRd9AaDwBahQj7O-163" edge="1">
          <mxGeometry width="50" height="50" relative="1" as="geometry">
            <mxPoint x="1280" y="520" as="sourcePoint" />
            <mxPoint x="1505" y="590" as="targetPoint" />
            <Array as="points">
              <mxPoint x="1150" y="490" />
              <mxPoint x="1160" y="490" />
            </Array>
          </mxGeometry>
        </mxCell>
        <mxCell id="sRX-MnRd9AaDwBahQj7O-178" value="" style="endArrow=classic;html=1;rounded=0;entryX=0.5;entryY=0;entryDx=0;entryDy=0;strokeWidth=7;strokeColor=light-dark(#18c9f9, #ededed);flowAnimation=1;shadow=1;" parent="1" target="sRX-MnRd9AaDwBahQj7O-95" edge="1">
          <mxGeometry width="50" height="50" relative="1" as="geometry">
            <mxPoint x="950" y="590" as="sourcePoint" />
            <mxPoint x="948" y="670" as="targetPoint" />
            <Array as="points" />
          </mxGeometry>
        </mxCell>
        <mxCell id="sRX-MnRd9AaDwBahQj7O-180" value="" style="endArrow=classic;html=1;rounded=0;entryX=0.5;entryY=0;entryDx=0;entryDy=0;strokeWidth=7;strokeColor=light-dark(#18c9f9, #ededed);flowAnimation=1;shadow=1;exitX=0.5;exitY=1;exitDx=0;exitDy=0;" parent="1" target="sRX-MnRd9AaDwBahQj7O-169" edge="1">
          <mxGeometry width="50" height="50" relative="1" as="geometry">
            <mxPoint x="1160" y="590" as="sourcePoint" />
            <mxPoint x="1140" y="680" as="targetPoint" />
            <Array as="points" />
          </mxGeometry>
        </mxCell>
        <mxCell id="sRX-MnRd9AaDwBahQj7O-181" value="" style="endArrow=classic;html=1;rounded=0;entryX=0.759;entryY=0.015;entryDx=0;entryDy=0;strokeWidth=7;strokeColor=light-dark(#18c9f9, #ededed);flowAnimation=1;shadow=1;entryPerimeter=0;exitX=0.5;exitY=1;exitDx=0;exitDy=0;" parent="1" target="sRX-MnRd9AaDwBahQj7O-173" edge="1">
          <mxGeometry width="50" height="50" relative="1" as="geometry">
            <mxPoint x="1160" y="590" as="sourcePoint" />
            <mxPoint x="1240" y="730" as="targetPoint" />
            <Array as="points">
              <mxPoint x="1160" y="630" />
              <mxPoint x="1210" y="630" />
            </Array>
          </mxGeometry>
        </mxCell>
        <mxCell id="sRX-MnRd9AaDwBahQj7O-169" value="&lt;blockquote style=&quot;margin: 0 0 0 40px; border: none; padding: 0px;&quot;&gt;Consumer&lt;/blockquote&gt;" style="rounded=0;whiteSpace=wrap;html=1;fillColor=light-dark(#beeeee, #ededed);strokeColor=none;shadow=1;align=left;fontSize=15;fontStyle=1;textShadow=1;" parent="1" vertex="1">
          <mxGeometry x="1065" y="670" width="190" height="100" as="geometry" />
        </mxCell>
        <mxCell id="sRX-MnRd9AaDwBahQj7O-170" value="" style="outlineConnect=0;dashed=0;verticalLabelPosition=bottom;verticalAlign=top;align=center;html=1;shape=mxgraph.aws3.hardware_board;fillColor=light-dark(#000000, #6eafc5);gradientColor=none;shadow=1;fillStyle=auto;" parent="1" vertex="1">
          <mxGeometry x="1195" y="694.84" width="50" height="50.31" as="geometry" />
        </mxCell>
        <mxCell id="sRX-MnRd9AaDwBahQj7O-184" value="" style="endArrow=classic;html=1;rounded=0;entryX=0.5;entryY=0;entryDx=0;entryDy=0;strokeWidth=7;strokeColor=light-dark(#18c9f9, #ededed);flowAnimation=1;shadow=1;exitX=0.5;exitY=1;exitDx=0;exitDy=0;" parent="1" target="sRX-MnRd9AaDwBahQj7O-171" edge="1">
          <mxGeometry width="50" height="50" relative="1" as="geometry">
            <mxPoint x="1375" y="589" as="sourcePoint" />
            <mxPoint x="1375" y="679" as="targetPoint" />
            <Array as="points" />
          </mxGeometry>
        </mxCell>
        <mxCell id="sRX-MnRd9AaDwBahQj7O-185" value="" style="endArrow=classic;html=1;rounded=0;entryX=0.5;entryY=1;entryDx=0;entryDy=0;strokeWidth=7;strokeColor=light-dark(#18c9f9, #ededed);flowAnimation=1;shadow=1;exitX=1;exitY=0.5;exitDx=0;exitDy=0;" parent="1" source="sRX-MnRd9AaDwBahQj7O-173" edge="1">
          <mxGeometry width="50" height="50" relative="1" as="geometry">
            <mxPoint x="1330" y="750" as="sourcePoint" />
            <mxPoint x="1570" y="470" as="targetPoint" />
            <Array as="points">
              <mxPoint x="1570" y="860" />
            </Array>
          </mxGeometry>
        </mxCell>
        <mxCell id="sRX-MnRd9AaDwBahQj7O-187" value="" style="endArrow=classic;html=1;rounded=0;entryX=0.5;entryY=1;entryDx=0;entryDy=0;strokeWidth=7;strokeColor=light-dark(#18c9f9, #ededed);flowAnimation=1;shadow=1;exitX=1;exitY=0.5;exitDx=0;exitDy=0;" parent="1" source="sRX-MnRd9AaDwBahQj7O-171" edge="1">
          <mxGeometry width="50" height="50" relative="1" as="geometry">
            <mxPoint x="1320" y="885.15" as="sourcePoint" />
            <mxPoint x="1570" y="470" as="targetPoint" />
            <Array as="points">
              <mxPoint x="1570" y="720" />
            </Array>
          </mxGeometry>
        </mxCell>
        <mxCell id="sRX-MnRd9AaDwBahQj7O-188" value="" style="endArrow=classic;html=1;rounded=0;entryX=1;entryY=0.5;entryDx=0;entryDy=0;strokeWidth=7;strokeColor=light-dark(#18c9f9, #ededed);flowAnimation=1;shadow=1;exitX=0.5;exitY=0;exitDx=0;exitDy=0;" parent="1" target="sRX-MnRd9AaDwBahQj7O-94" edge="1">
          <mxGeometry width="50" height="50" relative="1" as="geometry">
            <mxPoint x="1570" y="400" as="sourcePoint" />
            <mxPoint x="1684" y="300" as="targetPoint" />
            <Array as="points">
              <mxPoint x="1570" y="290" />
            </Array>
          </mxGeometry>
        </mxCell>
        <mxCell id="sRX-MnRd9AaDwBahQj7O-189" value="" style="outlineConnect=0;dashed=0;verticalLabelPosition=bottom;verticalAlign=top;align=center;html=1;shape=mxgraph.aws3.queue;fillColor=light-dark(#7fe4a4, #854a00);gradientColor=none;fontStyle=1;strokeWidth=1;strokeColor=default;shadow=1;" parent="1" vertex="1">
          <mxGeometry x="942" y="270" width="80" height="40" as="geometry" />
        </mxCell>
        <mxCell id="sRX-MnRd9AaDwBahQj7O-191" value="" style="outlineConnect=0;dashed=0;verticalLabelPosition=bottom;verticalAlign=top;align=center;html=1;shape=mxgraph.aws3.queue;fillColor=light-dark(#7fe4a4, #854a00);gradientColor=none;fontStyle=1;shadow=1;" parent="1" vertex="1">
          <mxGeometry x="946" y="280" width="80" height="40" as="geometry" />
        </mxCell>
        <mxCell id="sRX-MnRd9AaDwBahQj7O-192" value="Sync Queues" style="outlineConnect=0;dashed=0;verticalLabelPosition=bottom;verticalAlign=top;align=center;html=1;shape=mxgraph.aws3.queue;fillColor=light-dark(#7fe4a4, #854a00);gradientColor=none;fontStyle=1;shadow=1;fontColor=#FFFFFF;" parent="1" vertex="1">
          <mxGeometry x="950" y="290" width="80" height="40" as="geometry" />
        </mxCell>
        <mxCell id="sRX-MnRd9AaDwBahQj7O-193" value="" style="endArrow=classic;html=1;rounded=0;strokeWidth=7;strokeColor=light-dark(#18c9f9, #ededed);flowAnimation=1;shadow=1;exitX=0;exitY=0.5;exitDx=0;exitDy=0;entryX=1;entryY=0.5;entryDx=0;entryDy=0;" parent="1" source="sRX-MnRd9AaDwBahQj7O-94" edge="1">
          <mxGeometry width="50" height="50" relative="1" as="geometry">
            <mxPoint x="985.5" y="240" as="sourcePoint" />
            <mxPoint x="1031" y="292" as="targetPoint" />
            <Array as="points" />
          </mxGeometry>
        </mxCell>
        <mxCell id="sRX-MnRd9AaDwBahQj7O-196" value="" style="endArrow=classic;html=1;rounded=0;strokeWidth=7;strokeColor=light-dark(#18c9f9, #ededed);flowAnimation=1;shadow=1;exitX=0;exitY=0.5;exitDx=0;exitDy=0;" parent="1" edge="1">
          <mxGeometry width="50" height="50" relative="1" as="geometry">
            <mxPoint x="1346" y="290" as="sourcePoint" />
            <mxPoint x="1265.272727272727" y="210" as="targetPoint" />
            <Array as="points">
              <mxPoint x="1266" y="290" />
            </Array>
          </mxGeometry>
        </mxCell>
        <mxCell id="HGXYbQVTxKe95a1RH138-2" value="" style="shape=image;verticalLabelPosition=bottom;labelBackgroundColor=default;verticalAlign=top;aspect=fixed;imageAspect=0;editableCssRules=.*;image=data:image/svg+xml,PHN2ZyB4bWxuczp4bGluaz0iaHR0cDovL3d3dy53My5vcmcvMTk5OS94bGluayIgeG1sbnM9Imh0dHA6Ly93d3cudzMub3JnLzIwMDAvc3ZnIiBwcmVzZXJ2ZUFzcGVjdFJhdGlvPSJ4TWlkWU1pZCIgdmVyc2lvbj0iMS4xIiB2aWV3Qm94PSItMS40NTUxOTE1MjI4MzY2ODUyZS0xMSAtMC4wMDAwMDM4MTQ2OTcyNjU2MjUgNTExLjk5MzY4Mjg2MTMyODEgODYuNTA0NzYwNzQyMTg3NSIgaGVpZ2h0PSIxMzUuMTYzNjg4NjU5NjY3OTciIHdpZHRoPSI3OTkuOTkwMTI5NDcwODI1MiI+JiN4YTsgICAgPGc+JiN4YTsgICAgICAgIDxwYXRoIGZpbGw9IiNBOUI1QUYiIGQ9Ik00NzcuOTQ5NDE2LDAgQzQ5Ni4yNjk1NzQsMCA1MDYuMDgzOTQ1LDE2LjY1Mjc3MDQgNTA2LjA4Mzk0NSw0Mi42MzQ0NjkxIEM1MDYuMDgzOTQ1LDYwLjQ2OTE4NTIgNTAxLjk0NzEzNSw3Mi44Mzc0MDI1IDQ5NC4yMDExNjksNzkuNDY0NzQwNyBMNDk0LjIwMTE2OSw3OS40NjQ3NDA3IEw1MTEuOTkzNjczLDc4LjE1NjE1OCBMNTExLjk5MzY3Myw4NS4xODQ1MTM2IEw0NzcuNDQyODY4LDg1LjE4NDUxMzYgQzQ1OC45NzQ5NjcsODUuMTg0NTEzNiA0NDguODAxNzkxLDcxLjMxNzc1OCA0NDguODAxNzkxLDQyLjYzNDQ2OTEgQzQ0OC44MDE3OTEsMTMuOTUxMTgwMiA0NjAuNzY4OTkxLDAgNDc3Ljk0OTQxNiwwIFogTTM3OS42NzkwNzUsMS40NTYzMjU5MyBMNDAzLjA2NDcxNSw3NC43MTU4NTE5IEw0MDMuMzE3OTg5LDc0LjcxNTg1MTkgTDQyNi43ODgwNTMsMS40NTYzMjU5MyBMNDM4LjUyMzA4NSwxLjQ1NjMyNTkzIEw0MzguNTIzMDg1LDg1LjE0MjMwMTIgTDQzMS44OTU3NDcsODUuMTQyMzAxMiBMNDMxLjg5NTc0Nyw4LjE0Njk4MjcyIEw0MDcuMTE3MSw4NS4xNDIzMDEyIEwzOTkuNDc2NjY2LDg1LjE0MjMwMTIgTDM3NC4zNjAzMiw4LjE0Njk4MjcyIEwzNzQuMzYwMzIsODUuMTQyMzAxMiBMMzY3LjY2OTY2Myw4NS4xNDIzMDEyIEwzNjcuNjY5NjYzLDEuNDU2MzI1OTMgTDM3OS42NzkwNzUsMS40NTYzMjU5MyBaIE00NzcuODY0OTkxLDcuMjE4MzExMTEgQzQ2My41NzYxMTIsNy4yMTgzMTExMSA0NTYuNzU4ODE5LDE4LjgwNTYgNDU2Ljc1ODgxOSw0Mi42NTU1NzUzIEM0NTYuNzU4ODE5LDY2LjUwNTU1MDYgNDYyLjE2MTk5OSw3OC4xNTYxNTggNDc3LjUwNjE4Nyw3OC4xNTYxNTggQzQ5Mi44NTAzNzQsNzguMTU2MTU4IDQ5OC4wNDI0OTMsNjQuMjQ3MTkwMSA0OTguMDQyNDkzLDQyLjY1NTU3NTMgQzQ5OC4wNDI0OTMsMjEuMDYzOTYwNSA0OTIuMTUzODcsNy4yMTgzMTExMSA0NzcuODY0OTkxLDcuMjE4MzExMTEgWiI+JiN4YTsmI3hhOzwvcGF0aD4mI3hhOyAgICAgICAgPHBhdGggZmlsbD0iI0ZGNjYwMCIgZD0iTTMzOC45MjMwNTYsMTAuMDI1NDMyMSBMMzM4LjkyMzA1NiwyNy4zNzQ3MDYyIEwzNTQuMzUxNjY4LDI3LjM3NDcwNjIgTDM1NC4zNTE2NjgsMzMuMTU3Nzk3NSBMMzM4Ljk0NDE2MiwzMy4xNTc3OTc1IEwzMzguOTQ0MTYyLDcwLjMwNDY2MTcgQzMzOC45NDQxNjIsNzEuOTcyMDQ5NCAzMzguNTQzMTQ1LDgwLjU4MzM2NzkgMzQ3LjY4MjExNyw4MC41ODMzNjc5IEMzNDkuOTQzMzcyLDgwLjU2MDAwMDggMzUyLjE4OTUyNiw4MC4yMTE3MDQ4IDM1NC4zNTE2NjgsNzkuNTQ5MTY1NCBMMzU0LjM1MTY2OCw4NS45NDQzMzU4IEMzNTIuMzA3ODcyLDg2LjIyNjk2IDM1MC4yNTA3NTksODYuNDAzMDgyNyAzNDguMTg4NjY2LDg2LjQ3MTk5MDEgQzM0NC4wODc3LDg2LjcyMDQxMDQgMzQwLjAyNjExNyw4NS41NTAzNzY0IDMzNi42ODU4MDEsODMuMTU4MzIxIEMzMzQuMTUzMDYxLDgxLjA0NzcwMzcgMzMyLjkwNzc5Niw3Ny4zMzMwMTczIDMzMi45MDc3OTYsNzIuMjQ2NDI5NiBMMzMyLjkwNzc5NiwzMy4xNzg5MDM3IEwzMjMuNjYzMjkzLDMzLjE3ODkwMzcgTDMyMy42NjMyOTMsMjcuMzk1ODEyMyBMMzMyLjkwNzc5NiwyNy4zOTU4MTIzIEwzMzIuOTA3Nzk2LDE0LjA1NjcxMTEgTDMzOC45MjMwNTYsMTAuMDI1NDMyMSBaIE0yMDcuNTE2MDI0LDEuNDM1MjE5NzUgTDIwNy41MTYwMjQsMzguMzI4ODA5OSBMMjA3LjcyNzA4NSwzOC4zMjg4MDk5IEMyMDkuNzM1NzIyLDMxLjA5MTA3NjkgMjE2LjM0MTAwMSwyNi4wOTM4OTAxIDIyMy44NTIyMDEsMjYuMTI5NDQyIEMyMjguNDk1NTU5LDI2LjEyOTQ0MiAyNDMuOTAzMDY2LDI5LjA2MzIgMjQzLjkwMzA2Niw1Ni45MjMzNDgxIEMyNDMuOTAzMDY2LDg0Ljc4MzQ5NjMgMjI2LjM0MjczLDg2LjQ3MTk5MDEgMjIxLjUzMDUyMiw4Ni40NzE5OTAxIEMyMDEuOTIyMDQ0LDg2LjQ3MTk5MDEgMjAxLjQyODUyMiw2NS42MTM3ODEgMjAxLjQxNjYyNSw2MS43MjAyNDg3IEwyMDEuNDE2MzQsMS40MzUyMTk3NSBMMjA3LjUxNjAyNCwxLjQzNTIxOTc1IFogTTI1OS4zNzM4OSwxLjQzNTIxOTc1IEwyNTkuMzczODksMzguMzI4ODA5OSBMMjU5LjYyNzE2NCwzOC4zMjg4MDk5IEMyNjEuNjM1ODAyLDMxLjA5MTA3NjkgMjY4LjI0MTA4LDI2LjA5Mzg5MDEgMjc1Ljc1MjI4LDI2LjEyOTQ0MiBDMjgwLjM5NTYzOCwyNi4xMjk0NDIgMjk1LjgwMzE0NSwyOS4wNjMyIDI5NS44MDMxNDUsNTYuOTIzMzQ4MSBDMjk1LjgwMzE0NSw4NC43ODM0OTYzIDI3OC4yNDI4MDksODYuNDcxOTkwMSAyNzMuNDMwNjAxLDg2LjQ3MTk5MDEgQzI1My44MjIxMjMsODYuNDcxOTkwMSAyNTMuMzI4NjAxLDY1LjYxMzc4MSAyNTMuMzE2NzA0LDYxLjcyMDI0ODcgTDI1My4zMTY0MTksMS40MzUyMTk3NSBMMjU5LjM3Mzg5LDEuNDM1MjE5NzUgWiBNMTczLjQwODQ0OCwyNi4wODcyMjk2IEMxOTEuNjMxMDk2LDI2LjA4NzIyOTYgMTkxLjQ2ODUxOSwzOS4yODMyMzk1IDE5MS40NTQ3MjcsNDUuMzUzNDA0IEwxOTEuNDU0MjI2LDg1LjE0MjMwMTIgTDE4NS40Mzg5NjcsODUuMTQyMzAxMiBMMTg1LjQzODk2Nyw3Ni45NzQyMTIzIEwxODUuMTg1NjkzLDc2Ljk3NDIxMjMgQzE4My4yMjIwNzQsNzkuOTE3MDQ3OSAxODAuNTcwNTUxLDgyLjMzNjc0MyAxNzcuNDYwODMzLDg0LjAyMzY3NDEgQzE3NC4zMTI2MDEsODUuNjc1MTkzMyAxNzAuODAwMDc4LDg2LjUwOTc4MDQgMTY3LjI0NTQ0Niw4Ni40NTA4ODQgQzE2NC44MzkzNDIsODYuNDUwODg0IDE1Mi40NzExMjUsODUuOTQ0MzM1OCAxNTIuNDcxMTI1LDcxLjAyMjI3MTYgQzE1Mi40NzExMjUsNTYuMTAwMjA3NCAxNjguNjM4NDUzLDUzLjUyNTI1NDMgMTc4LjUzNzI0OCw1Mi43NjU0MzIxIEMxODAuODAwNzQzLDUyLjU0NjM4NDMgMTg0LjI2NDA2Nyw1Mi41MTY3ODMyIDE4NS4xNTg3NjUsNTIuNTEyNzgzIEwxODUuMjk1NSw1Mi41MTIyOTMgQzE4NS4zMTI5NjYsNTIuNTEyMjQ4IDE4NS4zMjc2OTMsNTIuNTEyMjE4IDE4NS4zMzk1NjcsNTIuNTEyMTk4IEwxODUuMzc1NjQ4LDUyLjUxMjE1OCBMMTg1LjM3NTc2MSw0Ny4zMTQxOTQzIEMxODUuMzc1ODMyLDQ3LjI2OTM1NzYgMTg1LjM3NTkzMSw0Ny4yMjM4NTA5IDE4NS4zNzYwNDQsNDcuMTc3NjkyNCBMMTg1LjM3Njc5MSw0Ni44OTMwNjQgQzE4NS4zNzY5MDgsNDYuODQ0MzcwNSAxODUuMzc3MDEyLDQ2Ljc5NTA2MTQgMTg1LjM3NzA4OSw0Ni43NDUxNTQ4IEwxODUuMzc3MTE5LDQ2LjQzODY4OTkgQzE4NS4zNjkxNzcsNDEuNTgxODM2OCAxODQuODkwNjI4LDMxLjg3MDMyMSAxNzIuODM4NTgyLDMxLjg3MDMyMSBDMTYyLjkzOTc4NywzMS44NzAzMjEgMTYxLjUwNDU2NywzNy44NjQ0NzQxIDE2MC44MjkxNjksNDEuMjQxNDYxNyBMMTYwLjgyOTE2OSw0MS4yNDE0NjE3IEwxNTMuMzk5Nzk2LDQxLjI0MTQ2MTcgQzE1My4zOTk3OTYsMzguNDk3NjU5MyAxNTQuODEzOTEsMjYuMDg3MjI5NiAxNzMuNDA4NDQ4LDI2LjA4NzIyOTYgWiBNMTE2LjIxMDcyLDEuNjA0MDY5MTQgQzEzOC4yMDMzNTIsMS42MDQwNjkxNCAxNDIuOTk0NDUzLDEzLjE0OTE0NTcgMTQyLjk5NDQ1MywyMy4wMjY4MzQ2IEMxNDIuOTk0NDUzLDMzLjc5MDk4MjcgMTM3Ljg4Njc1OSw0MS42ODQ2OTE0IDEyNi4xMDk1MTUsNDMuOTg1MjY0MiBDMTI2LjEwOTUxNSw0My45ODUyNjQyIDEzMy4yODU2MTQsNDYuMDk1ODgxNSAxMzUuNzk3MjQ4LDUwLjAwMDUyMzUgQzEzNy42OTY4MDQsNTIuOTU1Mzg3NyAxMzguNjI1NDc1LDU1Ljg2ODAzOTUgMTQwLjAxODQ4Myw2Mi42NjQyMjcyIEwxNDAuMDE4NDgzLDYyLjY2NDIyNzIgTDE0NC43NjczNzIsODUuMjQ3ODMyMSBMMTM3LjQ2NDYzNiw4NS4yNDc4MzIxIEwxMzMuMjQzNDAxLDY1LjQ1MDI0MiBDMTMxLjkxMzcxMiw1OS45NjI2MzcgMTMxLjA2OTQ2Niw1MS4zNzI0MjQ3IDEyMy42NjExOTksNDguNTY1MzAzNyBDMTIxLjE1NTM1OSw0Ny42NzczMDkyIDExOC41MDk5Niw0Ny4yNDgzMjU2IDExNS44NTE5MTUsNDcuMjk4OTMzMyBMMTE1Ljg1MTkxNSw0Ny4yOTg5MzMzIEwxMDUuODA1Mzc3LDQ3LjI5ODkzMzMgTDEwNS44MDUzNzcsODUuMTQyMzAxMiBMOTguNTQ0ODUzMiw4NS4xNDIzMDEyIEw5OC41NDQ4NTMyLDEuNjA0MDY5MTQgWiBNMzEyLjEzOTMyMiwyNy4zOTU4MTIzIEwzMTIuMTM5MzIyLDg1LjE0MjMwMTIgTDMwNi4wODE4NTEsODUuMTQyMzAxMiBMMzA2LjA4MTg1MSwyNy4zOTU4MTIzIEwzMTIuMTM5MzIyLDI3LjM5NTgxMjMgWiBNMjIzLjE3NjgwNCwzMS44NDkyMTQ4IEMyMTYuODg3MTY0LDMxLjg0OTIxNDggMjA3Ljc0ODE5MSwzOC43MDg3MjEgMjA3Ljc0ODE5MSw1Ny43MDQyNzY1IEMyMDcuNzQ4MTkxLDgwLjE0NjQ3MDEgMjE5LjAzODc4Nyw4MC41OTUzMTQgMjIxLjM5NzQ0Nyw4MC42MDQyOTA5IEwyMjEuNTk0NTg5LDgwLjYwNDMwNiBDMjIzLjgxNjI4Myw4MC41OTI0NzczIDIzNi42MDAzMyw3OS44ODUzODY4IDIzNi42MDAzMyw1Ni43NTQ0OTg4IEwyMzYuNjAwMzMsNTYuNzU0NDk4OCBMMjM2LjU5ODE5OCw1Ni4yMjU3ODU4IEMyMzYuNDU3NzM2LDM4LjE5OTg2NTkgMjI5LjQwMzU0NywzMS44NDkyMTQ4IDIyMy4xNzY4MDQsMzEuODQ5MjE0OCBaIE0yNzUuMDc2ODgzLDMxLjg0OTIxNDggQzI2OC43ODcyNDMsMzEuODQ5MjE0OCAyNTkuNjQ4MjcsMzguNzA4NzIxIDI1OS42NDgyNyw1Ny43MDQyNzY1IEMyNTkuNjQ4MjcsODAuMTQ2NDcwMSAyNzAuOTM4ODY2LDgwLjU5NTMxNCAyNzMuMjk3NTI2LDgwLjYwNDI5MDkgTDI3My40OTQ2NjgsODAuNjA0MzA2IEMyNzUuNzE2MzYyLDgwLjU5MjQ3NzMgMjg4LjUwMDQwOSw3OS44ODUzODY4IDI4OC41MDA0MDksNTYuNzU0NDk4OCBMMjg4LjUwMDQwOSw1Ni43NTQ0OTg4IEwyODguNDc5MzAzLDU2Ljc3NTYwNDkgQzI4OC40NzkzMDMsMzguMzI4ODA5OSAyODEuMzY2NTIyLDMxLjg0OTIxNDggMjc1LjA3Njg4MywzMS44NDkyMTQ4IFogTTE4NS4zNTQ1NDIsNTguMjk1MjQ5NCBMMTg1LjI2OTcwMyw1OC4yOTYxOTY5IEMxODQuMjg2NjY4LDU4LjMwNzU4NiAxNzUuMDQ5MDc2LDU4LjQyNTY1NTQgMTcyLjcxMTk0NSw1OC44NjUxMTYgQzE2MC45NTU4MDYsNjEuMTIzNDc2NSAxNTkuNzczNzgzLDY4LjI3ODQ2OTEgMTU5Ljc3Mzc4Myw3MS4zMzg4NjQyIEMxNTkuNzYzOTk2LDczLjU1MDE3NTcgMTYwLjY4OTU5LDc1LjY2MjU2NDIgMTYyLjMyMjAxOCw3Ny4xNTQyNjU5IEMxNjMuOTU0NDQ2LDc4LjY0NTk2NzYgMTY2LjE0MTQ5OCw3OS4zNzc4OTI3IDE2OC4zNDI5NjcsNzkuMTY5MjU0MyBDMTc2LjYyNTcxOSw3OS4xOTE1MTg1IDE4My42NzkwNjQsNzMuMTUyMjAzOCAxODQuOTMyNDE5LDY0Ljk2NDggQzE4NS4yMTEwNDEsNjIuNzUyNDk2OSAxODUuMzUyMDIxLDYwLjUyNTAyNzIgMTg1LjM1NDU0Miw1OC4yOTUyNDk0IEwxODUuMzU0NTQyLDU4LjI5NTI0OTQgWiBNMTE1LjM4NzU3OSw4LjEwNDc3MDM3IEwxMDUuODA1Mzc3LDguMTA0NzcwMzcgTDEwNS44MDUzNzcsNDAuNjI5MzgyNyBMMTEyLjQzMjcxNSw0MC42MjkzODI3IEMxMzQuOTUzMDAxLDQwLjYyOTM4MjcgMTM1LjY0OTUwNSwyNi42OTkzMDg2IDEzNS42NDk1MDUsMjIuODc5MDkxNCBMMTM1LjY0OTE1MywyMi43Mzk0MDExIEMxMzUuNjI1MzMsMTguMDc1NDk5NSAxMzQuMzM5NDQ1LDguMTA0NzcwMzcgMTE1LjM4NzU3OSw4LjEwNDc3MDM3IEwxMTUuMzg3NTc5LDguMTA0NzcwMzcgWiBNMzEzLjUzMjMzLDEuNDU2MzI1OTMgTDMxMy41MzIzMywxMS4yNzA2OTYzIEwzMDQuNTgzMzEyLDExLjI3MDY5NjMgTDMwNC41ODMzMTIsMS40NTYzMjU5MyBMMzEzLjUzMjMzLDEuNDU2MzI1OTMgWiI+JiN4YTsmI3hhOzwvcGF0aD4mI3hhOyAgICAgICAgPHBhdGggZmlsbD0iI0ZGNjYwMCIgZD0iTTgwLjg1Nzg4MDQsMzQuNjE0MTIzNSBMNTMuOTA1Mjk3NiwzNC42MTQxMjM1IEM1My4wMDc5NDExLDM0LjYxOTc4NTIgNTIuMTQ1Njk3NiwzNC4yNjU4MTQ4IDUxLjUxMTE1ODEsMzMuNjMxMjc1MyBDNTAuODc2NjE4NiwzMi45OTY3MzU4IDUwLjUyMjY0ODMsMzIuMTM0NDkyMyA1MC41MjgzMSwzMS4yMzcxMzU4IEw1MC41MjgzMSw0LjI4NDU1MzA5IEM1MC41MjgzMjc3LDMuMzkwODQ5IDUwLjE3MTg2NjgsMi41MzQwNTMyIDQ5LjUzNzk0NDcsMS45MDQwOTMwOSBDNDguOTA0MDIyNiwxLjI3NDEzMjk4IDQ4LjA0NTAwODcsMC45MjMwNTA4MjQgNDcuMTUxMzIyMywwLjkyODY3MTYwNSBMMzcuMDYyNTcxNywwLjkyODY3MTYwNSBDMzYuMTY4ODg1MywwLjkyMzA1MDgyNCAzNS4zMDk4NzE1LDEuMjc0MTMyOTggMzQuNjc1OTQ5NCwxLjkwNDA5MzA5IEMzNC4wNDIwMjczLDIuNTM0MDUzMiAzMy42ODU1NjY0LDMuMzkwODQ5IDMzLjY4NTU4NDEsNC4yODQ1NTMwOSBMMzMuNjg1NTg0MSwzMS4yMzcxMzU4IEMzMy42OTEyNDU4LDMyLjEzNDQ5MjMgMzMuMzM3Mjc1NCwzMi45OTY3MzU4IDMyLjcwMjczNTksMzMuNjMxMjc1MyBDMzIuMDY4MTk2NCwzNC4yNjU4MTQ4IDMxLjIwNTk1MjksMzQuNjE5Nzg1MiAzMC4zMDg1OTY0LDM0LjYxNDEyMzUgTDIwLjIxOTg0NTgsMzQuNjE0MTIzNSBDMTkuMzIyNDg5MywzNC42MTk3ODUyIDE4LjQ2MDI0NTgsMzQuMjY1ODE0OCAxNy44MjU3MDYzLDMzLjYzMTI3NTMgQzE3LjE5MTE2NjgsMzIuOTk2NzM1OCAxNi44MzcxOTY0LDMyLjEzNDQ5MjMgMTYuODQyODU4MSwzMS4yMzcxMzU4IEwxNi44NDI4NTgxLDQuMjg0NTUzMDkgQzE2Ljg0ODUxOTksMy4zODcxOTY1OCAxNi40OTQ1NDk1LDIuNTI0OTUzMDcgMTUuODYwMDEsMS44OTA0MTM1NyBDMTUuMjI1NDcwNSwxLjI1NTg3NDA3IDE0LjM2MzIyNywwLjkwMTkwMzcwNyAxMy40NjU4NzA1LDAuOTA3NDk4NTQ0IEwzLjM1NjAxMzcsMC45MDc0OTg1NDQgQzIuNDYyMzA5NjEsMC45MDc0OTg1NDQgMS42MDU1MTM4MSwxLjI2NDAwODYzIDAuOTc1NTUzNzA0LDEuODk3OTMwNzUgQzAuMzQ1NTkzNTk3LDIuNTMxODUyODcgLTAuMDA1NDg4NTYzMTMsMy4zOTA4NjY2OCA2LjUzMjkwMDU1ZS0wNSw0LjI4NDU1MzA5IEw2LjUzMjkwMDU1ZS0wNSw4MS43ODY0MTk4IEMtMC4wMDU1Mjk1MDcxNiw4Mi42ODM3NzYzIDAuMzQ4NDQwODU2LDgzLjU0NjAxOTggMC45ODI5ODAzNTMsODQuMTgwNTU5MyBDMS42MTc1MTk4NSw4NC44MTUwOTg4IDIuNDc5NzYzMzcsODUuMTY5MDY5MSAzLjM3NzExOTg3LDg1LjE2MzQ3NDMgTDgwLjg1Nzg4MDQsODUuMTYzNDc0MyBDODEuNzU1MjM2OSw4NS4xNjkwNjkxIDgyLjYxNzQ4MDQsODQuODE1MDk4OCA4My4yNTIwMTk5LDg0LjE4MDU1OTMgQzgzLjg4NjU1OTQsODMuNTQ2MDE5OCA4NC4yNDA1Mjk3LDgyLjY4Mzc3NjMgODQuMjM0ODY4LDgxLjc4NjQxOTggTDg0LjIzNDg2OCwzOC4wNTQ0Mjk2IEM4NC4yNTc3NDQsMzcuMTQ2MTg0OSA4My45MTEzODkxLDM2LjI2NzQ3NTEgODMuMjc0OTUzNywzNS42MTkxMDY1IEM4Mi42Mzg1MTgzLDM0Ljk3MDczNzkgODEuNzY2MzkzNCwzNC42MDgxMjE0IDgwLjg1Nzg4MDQsMzQuNjE0MTIzNSBaIE02Ny4zMDc3NjE2LDYzLjIzNDA5MzggQzY3LjMxMzMzMDQsNjQuNTc1NTk4NSA2Ni43ODQzNSw2NS44NjQwODQgNjUuODM3NzM3LDY2LjgxNDY1NzcgQzY0Ljg5MTEyNDEsNjcuNzY1MjMxMyA2My42MDQ4NTg1LDY4LjI5OTU3NTMgNjIuMjYzMzQyMSw2OC4yOTk1NzUzIEw1NS41MDkzNjY4LDY4LjI5OTU3NTMgQzU0LjE2Nzg1MDQsNjguMjk5NTc1MyA1Mi44ODE1ODQ4LDY3Ljc2NTIzMTMgNTEuOTM0OTcxOSw2Ni44MTQ2NTc3IEM1MC45ODgzNTg5LDY1Ljg2NDA4NCA1MC40NTkzNzg0LDY0LjU3NTU5ODUgNTAuNDY0OTQ3Myw2My4yMzQwOTM4IEw1MC40NjQ5NDczLDU2LjUwMTIyNDcgQzUwLjQ1OTM3ODQsNTUuMTU5NzIgNTAuOTg4MzU4OSw1My44NzEyMzQ1IDUxLjkzNDk3MTksNTIuOTIwNjYwOSBDNTIuODgxNTg0OCw1MS45NzAwODcyIDU0LjE2Nzg1MDQsNTEuNDM1NzQzMiA1NS41MDkzNjY4LDUxLjQzNTc0MzIgTDYyLjI2MzM0MjEsNTEuNDM1NzQzMiBDNjMuNjA0ODU4NSw1MS40MzU3NDMyIDY0Ljg5MTEyNDEsNTEuOTcwMDg3MiA2NS44Mzc3MzcsNTIuOTIwNjYwOSBDNjYuNzg0MzUsNTMuODcxMjM0NSA2Ny4zMTMzMzA0LDU1LjE1OTcyIDY3LjMwNzc2MTYsNTYuNTAxMjI0NyBMNjcuMzA3NzYxNiw2My4yMzQwOTM4IEw2Ny4zMDc3NjE2LDYzLjIzNDA5MzggWiI+JiN4YTsmI3hhOzwvcGF0aD4mI3hhOyAgICA8L2c+JiN4YTs8L3N2Zz4=;" parent="1" vertex="1">
          <mxGeometry x="1270" y="397.5" width="162.97" height="27.5" as="geometry" />
        </mxCell>
        <mxCell id="sRX-MnRd9AaDwBahQj7O-78" value="&lt;div&gt;Code under Test&lt;/div&gt;&lt;div&gt;(CuT)&lt;/div&gt;" style="rounded=0;whiteSpace=wrap;html=1;fillColor=light-dark(#75a2b0, #1f2f1e);strokeColor=none;fontStyle=1;shadow=1;fontSize=17;fontColor=light-dark(#ffffff, #ededed);textShadow=1;" parent="1" vertex="1">
          <mxGeometry x="460" y="760" width="190" height="80" as="geometry" />
        </mxCell>
        <mxCell id="sRX-MnRd9AaDwBahQj7O-79" value="" style="group" parent="1" connectable="0" vertex="1">
          <mxGeometry x="524.29" y="820" width="51.43" height="60" as="geometry" />
        </mxCell>
        <mxCell id="sRX-MnRd9AaDwBahQj7O-80" value="" style="whiteSpace=wrap;html=1;shape=mxgraph.basic.document" parent="sRX-MnRd9AaDwBahQj7O-79" vertex="1">
          <mxGeometry x="12.143194444444445" width="34.28666666666666" height="48" as="geometry" />
        </mxCell>
        <mxCell id="sRX-MnRd9AaDwBahQj7O-81" value="" style="whiteSpace=wrap;html=1;shape=mxgraph.basic.document" parent="sRX-MnRd9AaDwBahQj7O-79" vertex="1">
          <mxGeometry x="5.714444444444444" y="6" width="34.28666666666666" height="48" as="geometry" />
        </mxCell>
        <mxCell id="sRX-MnRd9AaDwBahQj7O-82" value="" style="whiteSpace=wrap;html=1;shape=mxgraph.basic.document" parent="sRX-MnRd9AaDwBahQj7O-79" vertex="1">
          <mxGeometry y="12" width="34.28666666666666" height="48" as="geometry" />
        </mxCell>
        <mxCell id="zDn3umxDJUwgGetxJac8-1" value="" style="shape=image;verticalLabelPosition=bottom;labelBackgroundColor=default;verticalAlign=top;aspect=fixed;imageAspect=0;editableCssRules=.*;image=data:image/svg+xml,PHN2ZyB4bWxuczp4bGluaz0iaHR0cDovL3d3dy53My5vcmcvMTk5OS94bGluayIgeG1sbnM9Imh0dHA6Ly93d3cudzMub3JnLzIwMDAvc3ZnIiB4bWw6c3BhY2U9InByZXNlcnZlIiBzdHlsZT0iZW5hYmxlLWJhY2tncm91bmQ6bmV3IDAgMCA4OTIgNjE0LjI7IiB2aWV3Qm94PSI3NiAyMTMgNzQwIDE4OC4yMDAwMTIyMDcwMzEyNSIgeT0iMHB4IiB4PSIwcHgiIGlkPSJMYXllcl8xIiB2ZXJzaW9uPSIxLjAiIHdpZHRoPSI3NDAiIGhlaWdodD0iMTg4LjIwMDAxMjIwNzAzMTI1Ij4mI3hhOzxzdHlsZSB0eXBlPSJ0ZXh0L2NzcyI+JiN4YTsJLnN0MHtmaWxsOiM0MUJGNDc7fSYjeGE7PC9zdHlsZT4mI3hhOzxwYXRoIGQ9Ik0zNTEuNywzOTkuOGgtMTQuMmwtMi41LTE2LjZoLTE3LjZsLTIuNSwxNi42aC0xMy4xbDE0LjQtOTEuMWgyMUwzNTEuNywzOTkuOHogTTMxOSwzNzAuOWgxMy45bC02LjktNDYuMkwzMTksMzcwLjl6Ii8+JiN4YTs8cGF0aCBkPSJNMzg4LDM5OS44Yy0xLjItMy42LTEuNy03LjQtMS4zLTExLjJ2LTE0LjNjMC04LjUtMi44LTExLjYtOS4yLTExLjZoLTV2MzdoLTE0LjR2LTkxaDIxLjZjMTQuOSwwLDIxLjMsNi45LDIxLjMsMjAuOXY3LjImIzEwOyYjOTtjMCw5LjItMywxNS41LTkuMiwxOC41YzcuMiwzLDkuNSw5LjksOS41LDE5LjR2MTMuOWMtMC4zLDMuOCwwLjMsNy42LDEuNiwxMS4xTDM4OCwzOTkuOHogTTM3Mi40LDMyMS43djI4aDUuNiYjMTA7JiM5O2M1LjMsMCw4LjYtMi4zLDguNi05LjZ2LTljMC02LjUtMi4yLTkuMi03LjMtOS4yTDM3Mi40LDMyMS43eiIvPiYjeGE7PHBhdGggZD0iTTQwNi4yLDMwOC43aDQ0LjN2MTNoLTE1djc4LjJoLTE0LjN2LTc4LjJoLTE1TDQwNi4yLDMwOC43eiIvPiYjeGE7PHBhdGggZD0iTTQ1Ni42LDMwOC43aDE0LjN2OTEuMWgtMTQuM1YzMDguN3oiLz4mI3hhOzxwYXRoIGQ9Ik00OTMuNiwzNDkuMWgxOC41djEzaC0xOC41djM3LjZoLTE0LjN2LTkxaDM3Ljl2MTNoLTIzLjZWMzQ5LjF6Ii8+JiN4YTs8cGF0aCBkPSJNNTY2LjMsMzk5LjhoLTE0LjVsLTIuNS0xNi42aC0xNy43bC0yLjUsMTYuNkg1MTZsMTQuNy05MS4xaDIwLjlMNTY2LjMsMzk5Ljh6IE01MzMuNiwzNzAuOWgxMy45bC02LjktNDYuMkw1MzMuNiwzNzAuOXoiLz4mI3hhOzxwYXRoIGQ9Ik02MTMuNCwzNjUuOHYxMi4zYzAsMTQuNi03LjMsMjIuOS0yMS40LDIyLjlzLTIxLjQtOC4zLTIxLjQtMjIuOXYtNDcuNmMwLTE0LjYsNy4zLTIzLjEsMjEuNC0yMy4xczIxLjQsOC40LDIxLjQsMjMuMXY4LjkmIzEwOyYjOTtoLTEzLjV2LTkuOGMwLTYuNS0yLjktOS03LjQtOXMtNy41LDIuNS03LjUsOXY0OS4yYzAsNi41LDIuOSw4LjksNy41LDguOXM3LjQtMi40LDcuNC04Ljl2LTEzSDYxMy40eiIvPiYjeGE7PHBhdGggZD0iTTYxOC4zLDMwOC43aDQ0LjN2MTNoLTE1djc4LjJoLTE0LjJ2LTc4LjJoLTE1TDYxOC4zLDMwOC43eiIvPiYjeGE7PHBhdGggZD0iTTY2Ny44LDMzMC41YzAtMTQuNiw3LjctMjMuMSwyMS43LTIzLjFzMjEuOCw4LjQsMjEuOCwyMy4xdjQ3LjZjMCwxNC42LTcuNywyMi45LTIxLjgsMjIuOXMtMjEuNy04LjMtMjEuNy0yMi45VjMzMC41eiYjMTA7JiM5OyBNNjgyLjEsMzc4LjhjMCw2LjUsMi45LDksNy40LDlzNy40LTIuNSw3LjQtOXYtNDkuMmMwLTYuNS0yLjktOS03LjQtOXMtNy40LDIuNS03LjQsOVYzNzguOHoiLz4mI3hhOzxwYXRoIGQ9Ik03NDksMzk5LjhjLTEuMi0zLjYtMS43LTcuNC0xLjMtMTEuMnYtMTQuM2MwLTguNS0yLjktMTEuNi05LjItMTEuNmgtNXYzN2gtMTQuM3YtOTFoMjEuNmMxNC44LDAsMjEuMiw2LjksMjEuMiwyMC45djcuMiYjMTA7JiM5O2MwLDkuMi0zLDE1LjUtOS4yLDE4LjVjNy4yLDMsOS41LDkuOSw5LjUsMTkuNHYxMy45Yy0wLjMsMy44LDAuMyw3LjYsMS42LDExLjFMNzQ5LDM5OS44eiBNNzMzLjMsMzIxLjd2MjhoNS43JiMxMDsmIzk7YzUuMywwLDguNi0yLjMsOC42LTkuNnYtOWMwLTYuNS0yLjItOS4yLTcuMy05LjJMNzMzLjMsMzIxLjd6Ii8+JiN4YTs8cGF0aCBkPSJNNzgzLjQsMzY5LjZsLTE4LjEtNjAuOWgxNWwxMC45LDQxLjZsMTEtNDEuNkg4MTZsLTE4LjEsNjAuOXYzMC4yaC0xNC4zTDc4My40LDM2OS42eiIvPiYjeGE7PHJlY3QgaGVpZ2h0PSIxMi43IiB3aWR0aD0iMTY1LjEiIGNsYXNzPSJzdDAiIHk9IjM4OC41IiB4PSI3NiIvPiYjeGE7PHBhdGggZD0iTTE1OC4yLDM1NC4xYy0zOSwwLTcwLjYtMzEuNi03MC42LTcwLjVzMzEuNi03MC42LDcwLjUtNzAuNmMzOSwwLDcwLjYsMzEuNiw3MC42LDcwLjVsMCwwJiMxMDsmIzk7QzIyOC43LDMyMi41LDE5Ny4yLDM1NCwxNTguMiwzNTQuMXogTTE1OC4yLDIyNi41Yy0zMS41LDAtNTcuMSwyNS41LTU3LjIsNTcuMWMwLDMxLjUsMjUuNSw1Ny4xLDU3LjEsNTcuMiYjMTA7JiM5O2MzMS41LDAsNTcuMS0yNS41LDU3LjItNTcuMWMwLDAsMCwwLDAsMHYtMC4xQzIxNS4yLDI1Mi4xLDE4OS43LDIyNi42LDE1OC4yLDIyNi41TDE1OC4yLDIyNi41eiIgY2xhc3M9InN0MCIvPiYjeGE7PHBhdGggZD0iTTMwMi4yLDI4OS44Yy0xLjksMC0zLjktMC4yLTUuOC0wLjdWMjgxYzEuNSwwLjQsMy4xLDAuNiw0LjYsMC42YzEuOCwwLjIsMy41LTAuNiw0LjYtMiYjMTA7JiM5O2MxLjEtMS45LDEuNS00LjEsMS40LTYuMnYtNDMuMmg5Ljh2NDMuMWMwLjMsNC40LTEsOC44LTMuNywxMi4zQzMxMC40LDI4OC41LDMwNi40LDI5MC4xLDMwMi4yLDI4OS44eiIgY2xhc3M9InN0MCIvPiYjeGE7PHBhdGggZD0iTTMzOCwyNzYuNGgtOS44di00Ni4yaDI2LjV2OGgtMTYuOFYyNTBoMTUuNnY3LjloLTE1LjZMMzM4LDI3Ni40eiIgY2xhc3M9InN0MCIvPiYjeGE7PHBhdGggZD0iTTM4Mi44LDI0MC40YzEuMSwwLDIuMiwwLjEsMy4yLDAuM2wtMC43LDljLTMuNS0wLjgtNy4xLTAuMS0xMCwyYy0xLjgsMS43LTIuNyw0LjItMi42LDYuN3YxOGgtOS42di0zNS4yaDcuMyYjMTA7JiM5O2wxLjQsNS45aDAuNWMxLjItMS45LDIuNy0zLjUsNC42LTQuNkMzNzguNiwyNDEuMiwzODAuNywyNDAuNCwzODIuOCwyNDAuNHoiIGNsYXNzPSJzdDAiLz4mI3hhOzxwYXRoIGQ9Ik00MjQuNSwyNTguNmMwLjMsNC45LTEuNCw5LjctNC42LDEzLjVjLTMuMywzLjQtNy45LDUuMS0xMi43LDQuOWMtMy4xLDAuMS02LjItMC43LTguOS0yLjImIzEwOyYjOTtjLTIuNi0xLjUtNC43LTMuNy02LTYuNGMtMS40LTMtMi4yLTYuNC0yLjEtOS43Yy0wLjMtNC45LDEuNC05LjgsNC42LTEzLjVjMy40LTMuMyw4LTUsMTIuNy00LjZjMy4xLTAuMSw2LjMsMC43LDksMi4yJiMxMDsmIzk7YzIuNiwxLjQsNC43LDMuNiw2LDYuM0M0MjMuOSwyNTIsNDI0LjUsMjU1LjMsNDI0LjUsMjU4LjZ6IE00MDAuMSwyNTguNmMtMC4yLDIuNywwLjQsNS41LDEuNyw3LjljMi41LDMuMSw3LDMuNiwxMC4xLDEuMSYjMTA7JiM5O2MwLjQtMC4zLDAuOC0wLjcsMS4xLTEuMWMxLjMtMi40LDEuOC01LjIsMS43LTcuOWMwLjItMi43LTAuNC01LjUtMS43LTcuOWMtMS4zLTEuOC0zLjQtMi44LTUuNS0yLjZjLTIuMi0wLjItNC4zLDAuOC01LjUsMi42JiMxMDsmIzk7QzQwMC41LDI1My4xLDM5OS45LDI1NS44LDQwMC4xLDI1OC42TDQwMC4xLDI1OC42eiIgY2xhc3M9InN0MCIvPiYjeGE7PHBhdGggZD0iTTQ2My4xLDI0MXY0LjlsLTUuNSwxLjRjMSwxLjYsMS41LDMuNCwxLjUsNS4zYzAuMiwzLjQtMS4zLDYuNy0zLjksOC44Yy0zLjIsMi4zLTcuMSwzLjQtMTEsMy4ySDQ0MSYjMTA7JiM5O2MtMC45LDAuNi0xLjQsMS41LTEuNSwyLjVjMCwxLjQsMS44LDIuMSw1LjMsMi4xaDZjMy4xLTAuMiw2LjMsMC43LDguOCwyLjVjMi4xLDEuOCwzLjMsNC41LDMuMSw3LjNjMC4xLDMuOS0xLjgsNy42LTUuMiw5LjYmIzEwOyYjOTtjLTQuNSwyLjUtOS42LDMuNy0xNC44LDMuNGMtMy45LDAuMi03LjgtMC43LTExLjItMi42Yy0yLjUtMS41LTQtNC4zLTMuOS03LjJjLTAuMS0yLDAuNi0zLjksMS45LTUuM2MxLjYtMS42LDMuNy0yLjcsNS45LTMuMSYjMTA7JiM5O2MtMS0wLjQtMS45LTEuMi0yLjYtMi4xYy0wLjctMC44LTEuMS0xLjktMS4xLTNjLTAuMS0xLjIsMC40LTIuNCwxLjEtMy40YzEtMSwyLjEtMS45LDMuNC0yLjZjLTEuOS0wLjctMy42LTIuMS00LjYtMy44JiMxMDsmIzk7Yy0xLjEtMS45LTEuNy00LTEuNi02LjJjLTAuMi0zLjQsMS4yLTYuNywzLjctOC45YzMuMS0yLjMsNi45LTMuNCwxMC43LTMuMWMxLjIsMCwyLjMsMC4xLDMuNSwwLjNsMi42LDAuNEw0NjMuMSwyNDF6IE00MzUuOCwyODEuMiYjMTA7JiM5O2MwLDEuMywwLjcsMi41LDEuOSwzLjFjMS42LDAuOCwzLjUsMS4yLDUuMywxLjFjMi44LDAuMSw1LjUtMC40LDguMS0xLjRjMS43LTAuNSwyLjktMi4xLDMtMy44YzAuMS0xLjItMC42LTIuMy0xLjgtMi44JiMxMDsmIzk7Yy0xLjctMC42LTMuNS0wLjgtNS40LTAuN2gtNWMtMS42LTAuMS0zLjMsMC4zLTQuNiwxLjJDNDM2LjQsMjc4LjcsNDM1LjgsMjc5LjksNDM1LjgsMjgxLjJMNDM1LjgsMjgxLjJ6IE00MzkuMywyNTIuNiYjMTA7JiM5O2MtMC4xLDEuNiwwLjQsMy4zLDEuMyw0LjZjMi4yLDIuMiw1LjgsMi4yLDgsMGMwLDAsMCwwLDAsMGMwLjktMS40LDEuMy0zLDEuMi00LjZjMC00LjMtMS44LTYuNC01LjItNi40cy01LjUsMi4xLTUuNSw2LjRINDM5LjN6IiBjbGFzcz0ic3QwIi8+JiN4YTs8L3N2Zz4=;shadow=1;shadowColor=#FFFFFF;container=0;shadowBlur=1;shadowOpacity=100;shadowOffsetX=1;shadowOffsetY=1;" vertex="1" parent="1">
          <mxGeometry x="1170" y="150" width="196.81" height="50" as="geometry" />
        </mxCell>
      </root>
    </mxGraphModel>
  </diagram>
</mxfile>
